<?xml version="1.0" encoding="utf-8"?>
<!-- Generator: Adobe Illustrator 19.2.0, SVG Export Plug-In . SVG Version: 6.00 Build 0)  -->
<svg version="1.1" id="Layer_1" xmlns="http://www.w3.org/2000/svg" xmlns:xlink="http://www.w3.org/1999/xlink" x="0px" y="0px"
	viewBox="0 0 270 36" style="enable-background:new 0 0 270 36;" xml:space="preserve">
<style type="text/css">
	.st0{fill:#FB7C32;}
	.st1{fill:#32515B;}
</style>
<g id="Icon">
	<path id="Right" class="st0" d="M248.8,21.7c2.7-1.5,5.9-3.5,8.5-6.8c-2.6-3.2-6.2-5.1-8.8-6.6c6.4-1.4,12,4.9,12,4.9l1.5,1.7
		l-1.5,1.7C254.7,22.9,248.8,21.7,248.8,21.7z"/>
	<ellipse id="Dot" class="st1" cx="246.3" cy="15" rx="3" ry="3"/>
	<path id="Middle" class="st0" d="M250.5,28C239.4,28,232,16.5,231.6,16l-0.7-1.1l0.7-1.1c0.3-0.5,7.7-11.8,18.8-11.8
		c6.6,0,12.8,3.9,18.6,11.7l0.9,1.2l-0.9,1.2C263.3,24,257,28,250.5,28z M235.9,14.9c2,2.6,7.5,9,14.6,9c4.8,0,9.7-3,14.4-9
		C260.2,9,255.3,6,250.5,6C243.4,6,237.9,12.3,235.9,14.9z"/>
	<path id="Left" class="st0" d="M242,28c-10.8-0.3-17.8-11.7-18.1-12.2l-0.6-1.1l0.7-1.1c0.3-0.5,7.2-11.3,17.9-11.7
		c-8.3,3.9-14.2,13-14.2,13S232.7,23.2,242,28z"/>
</g>
<g id="Logo_Type">
	<path id="S" class="st0" d="M211.9,23.1c0.5,0,1.9,1,3.7,1c1.6,0,2.3-0.6,2.3-1.7c0-3.3-7.4-1.4-7.4-8.1c0-3.7,2.6-6.1,6.9-6.1
		c1.2,0,5.5,0.3,5.5,2.4c0,0.5-0.9,2.8-1.6,2.8c-0.4,0-1.5-0.8-3.2-0.8c-1.3,0-2,0.4-2,1.4c0,2.7,7.4,1.3,7.4,8c0,3.9-2.8,6.5-7,6.5
		c-3.3,0-6.5-0.9-6.5-2.7C209.9,25.2,211.1,23.1,211.9,23.1z"/>
	<path id="E" class="st0" d="M156.7,3.5c0-1,0.4-1.5,1.5-1.5h13.6c0.8,0,1.1,0.6,1.1,1.9V5c0,1.3-0.3,1.9-1.1,1.9h-9.4v5.4h8.4
		c0.8,0,1.1,0.6,1.1,1.9v1.2c0,1.3-0.3,1.9-1.1,1.9h-8.4v6.1h9.5c0.8,0,1.1,0.6,1.1,1.9v1.2c0,1.3-0.3,1.9-1.1,1.9h-13.7
		c-1,0-1.5-0.4-1.5-1.5V3.5L156.7,3.5z"/>
	<path id="y" class="st0" d="M174.2,10.1c-0.1-0.3-0.1-0.5-0.1-0.7c0-0.5,0.7-0.8,2.3-0.8h1.2c1.1,0,1.9,0.2,2.1,0.8l2.2,6.9
		c0.3,0.9,0.7,2.9,1,4.5h0.1c0.3-1.6,0.8-3.7,1-4.5l2.2-6.9c0.2-0.6,1-0.8,2.1-0.8h0.9c1.6,0,2.2,0.3,2.2,0.8c0,0.2,0,0.4-0.1,0.7
		l-8.6,25.1c-0.2,0.6-1,0.8-2.1,0.8H180c-1.5,0-2.3-0.3-2.3-0.8c0-0.2,0-0.4,0.1-0.7l2.4-6.3L174.2,10.1z"/>
	<path id="e" class="st0" d="M200.8,8.4c5.9,0,8.1,4.5,8.1,9.7c0,0.6-1.4,2.2-1.9,2.2h-9.5c0.3,3,1.9,3.9,4.3,3.9
		c2.4,0,4-1.2,4.5-1.2c0.8,0,1.9,2.1,1.9,2.8c0,1.9-4.6,2.7-6.7,2.7c-6.8,0-9.7-3.9-9.7-10C191.8,11.2,195.5,8.4,200.8,8.4z
		 M203.5,16.5c0-2.2-0.8-3.8-2.7-3.8c-1.6,0-2.9,0.9-3.4,3.8H203.5z"/>
	<path id="d" class="st1" d="M135.4,18.4c0-6.1,2.8-10.1,7.9-10.1c1.8,0,3,0.6,3.8,1.2V1.2c0-0.8,0.7-1.2,2.2-1.2h1
		c1.6,0,2.2,0.4,2.2,1.2v20.5c0,3.9,0.4,4.6,0.4,5.4c0,0.9-3.3,1.2-4.2,1.2c-1.2,0-1.3-1.6-1.5-2.6c-0.9,1.6-2.7,2.8-5,2.8
		C138.3,28.6,135.4,25,135.4,18.4z M147,21.8v-8.4c-0.6-0.3-1.5-0.7-2.6-0.7c-2.4,0-3.5,1.9-3.5,5.7c0,3.6,1,5.6,3,5.6
		C145.4,24,146.4,23,147,21.8z"/>
	<path id="n" class="st1" d="M116.8,15.3c0-3.7-0.4-4.5-0.4-5.3c0-0.9,3.3-1.2,4.2-1.2c1.2,0,1.3,1.5,1.5,2.4
		c1.1-1.4,3.2-2.8,5.6-2.8c3.7,0,5.5,1.9,5.5,6.1v12.7c0,0.8-0.7,1.2-2.3,1.2h-1c-1.6,0-2.2-0.4-2.2-1.2V15.3c0-1.5-0.6-2.3-2.3-2.3
		c-1.5,0-2.5,1.3-3,2.2v12c0,0.8-0.7,1.2-2.2,1.2h-1c-1.6,0-2.2-0.4-2.2-1.2L116.8,15.3L116.8,15.3z"/>
	<path id="a" class="st1" d="M107.2,16.1v-1.2c0-1.4-0.9-2.1-2.9-2.1c-2.7,0-4.3,1.2-4.8,1.2c-0.8,0-1.9-2.2-1.9-3
		c0-1.3,3-2.6,7.1-2.6c5.9,0,8,2.6,8,6.3v7.1c0,3.9,0.4,4.6,0.4,5.4c0,0.9-3.3,1.2-4.2,1.2c-1.2,0-1.3-1.6-1.5-2.6
		c-0.3,0.5-2,2.8-5.5,2.8c-4,0-5.5-2.4-5.5-5.5C96.5,20,97.7,16.1,107.2,16.1z M103.8,24.2c1.4,0,2.8-1,3.4-2.4v-2.1
		c-3.5,0-5.2,1-5.2,2.8C102,23.5,102.6,24.2,103.8,24.2z"/>
	<path id="s" class="st1" d="M82.6,23.1c0.5,0,1.9,1,3.7,1c1.6,0,2.3-0.6,2.3-1.7c0-3.3-7.4-1.4-7.4-8.1c0-3.7,2.6-6.1,6.9-6.1
		c1.2,0,5.5,0.3,5.5,2.4c0,0.5-0.9,2.8-1.6,2.8c-0.4,0-1.5-0.8-3.2-0.8c-1.3,0-2,0.4-2,1.4c0,2.7,7.4,1.3,7.4,8c0,3.9-2.8,6.5-7,6.5
		c-3.3,0-6.5-0.9-6.5-2.7C80.7,25.2,81.9,23.1,82.6,23.1z"/>
	<path id="u" class="st1" d="M61.7,9.8c0-0.8,0.7-1.2,2.2-1.2h1c1.6,0,2.2,0.4,2.2,1.2v11.9c0,1.5,0.6,2.3,2.2,2.3
		c1.5,0,2.5-1.3,3-2.2V9.8c0-0.8,0.7-1.2,2.2-1.2h1c1.6,0,2.2,0.4,2.2,1.2v11.9c0,3.9,0.5,4.6,0.5,5.4c0,0.9-3.3,1.2-4.2,1.2
		c-1.2,0-1.3-1.6-1.5-2.6c-1.1,1.4-3.2,2.8-5.6,2.8c-3.7,0-5.5-1.9-5.5-6.1V9.8H61.7z"/>
	<path id="o" class="st1" d="M49.6,8.4c5.9,0,9,3.6,9,10.1s-3.1,10.1-9,10.1s-9.1-3.6-9.1-10.1S43.7,8.4,49.6,8.4z M53.1,18.4
		c0-3.7-1-5.7-3.4-5.7s-3.5,1.9-3.5,5.7s1.1,5.7,3.5,5.7C52,24.2,53.1,22.2,53.1,18.4z"/>
	<path id="h" class="st1" d="M21.9,1.2c0-0.8,0.7-1.2,2.3-1.2h1c1.6,0,2.2,0.4,2.2,1.2v9.7c1.1-1.4,3-2.6,5.3-2.6
		c3.7,0,5.6,1.9,5.6,6.1v12.7c0,0.8-0.7,1.2-2.2,1.2h-1c-1.6,0-2.2-0.4-2.2-1.2V15.3c0-1.5-0.8-2.3-2.4-2.3c-1.5,0-2.5,1.3-3,2.2v12
		c0,0.8-0.7,1.2-2.2,1.2h-1c-1.6,0-2.2-0.4-2.2-1.2L21.9,1.2L21.9,1.2z"/>
	<path id="T" class="st1" d="M7.1,6.9H1.1C0.3,6.9,0,6.4,0,5.1V3.9c0-1.3,0.3-1.9,1.1-1.9h17.7c0.8,0,1.1,0.6,1.1,1.9v1.2
		c0,1.3-0.3,1.9-1.1,1.9h-5.9v20.2c0,0.8-0.7,1.2-2.2,1.2H9.3c-1.6,0-2.3-0.4-2.3-1.2C7.1,27.1,7.1,6.9,7.1,6.9z"/>
</g>
</svg>
